<svg width="28" height="28" viewBox="0 0 28 28" fill="none" xmlns="http://www.w3.org/2000/svg">
<path fill-rule="evenodd" clip-rule="evenodd" d="M14 0C6.26801 0 0 6.26801 0 14C0 21.1432 5.34982 27.037 12.2614 27.8931L12.7075 22.4575C12.7421 22.0276 12.6488 21.597 12.4386 21.2165C12.2283 20.836 11.9098 20.5213 11.5205 20.3094C9.89773 19.4198 8 17.5887 8 15.3597V7.96437C8.00112 7.70818 8.10718 7.46281 8.29505 7.28177C8.47291 7.10846 8.71297 7.0077 8.96563 7.00031H8.99246C9.11711 6.99987 9.2406 7.02339 9.35573 7.06949C9.47087 7.11559 9.57533 7.18336 9.66303 7.26883C9.76917 7.36988 9.85346 7.49026 9.91102 7.62298C9.96857 7.75571 9.99825 7.89813 9.99832 8.042V13.4058C9.99832 13.7919 10.1573 14.1621 10.4402 14.4352C10.7232 14.7082 11.107 14.8615 11.5071 14.8615C11.9073 14.8615 12.291 14.7082 12.574 14.4352C12.857 14.1621 13.0159 13.7919 13.0159 13.4058V7.96437C13.0161 7.70864 13.121 7.46333 13.3076 7.28177C13.4866 7.1101 13.726 7.00963 13.9782 7.00031C14.107 6.99708 14.2351 7.0189 14.3549 7.06447C14.4747 7.11005 14.5838 7.17845 14.6756 7.26559C14.7823 7.36692 14.8669 7.4878 14.9245 7.62113C14.9821 7.75447 15.0114 7.89756 15.0109 8.042V13.4058C15.0108 13.6056 15.0534 13.8032 15.1361 13.9864C15.2188 14.1696 15.3397 14.3344 15.4914 14.4704C15.6431 14.6064 15.8222 14.7108 16.0176 14.777C16.213 14.8432 16.4205 14.8698 16.627 14.8551C17.012 14.8202 17.3693 14.6467 17.6277 14.3691C17.8862 14.0916 18.0268 13.7303 18.0218 13.3572V7.96437C18.022 7.70864 18.1268 7.46333 18.3135 7.28177C18.4925 7.1101 18.7319 7.00963 18.9841 7.00031C19.1105 6.99991 19.2358 7.02372 19.3526 7.07036C19.4694 7.11701 19.5755 7.18557 19.6647 7.27206C19.7708 7.37311 19.8551 7.49349 19.9127 7.62622C19.9702 7.75894 19.9999 7.90137 20 8.0452V15.3597C20.0017 16.1213 19.847 16.8756 19.5449 17.5791C19.2428 18.2826 18.7992 18.9214 18.2397 19.4586C17.7837 19.805 17.2762 20.0831 16.7343 20.2835C16.281 20.4694 15.8999 20.7881 15.6447 21.1945C15.3896 21.6009 15.2734 22.0744 15.3126 22.5481L15.752 27.8914C22.6571 27.0294 28 21.1386 28 14C28 6.26801 21.732 0 14 0Z" fill="#16A34A"/>
</svg>
